<?xml version="1.0" standalone="no"?>
<!DOCTYPE svg PUBLIC "-//W3C//DTD SVG 20010904//EN"
 "http://www.w3.org/TR/2001/REC-SVG-20010904/DTD/svg10.dtd">
<svg version="1.0" xmlns="http://www.w3.org/2000/svg"
 width="1254.000000pt" height="1254.000000pt" viewBox="0 0 1254.000000 1254.000000"
 preserveAspectRatio="xMidYMid meet">

<g transform="translate(0.000000,1254.000000) scale(0.100000,-0.100000)"
fill="currentColor" stroke="none">
<path d="M8376 10555 c-42 -151 -65 -210 -148 -378 -94 -190 -140 -310 -164
-420 -20 -99 -18 -273 7 -414 11 -65 27 -160 35 -212 l14 -94 -46 -136 c-59
-172 -132 -354 -220 -548 -65 -144 -94 -192 -74 -123 17 61 32 265 25 359 -4
53 -16 141 -28 196 -12 61 -23 166 -28 270 -11 250 -45 368 -150 521 -64 92
-147 169 -253 235 -77 47 -224 115 -232 106 -2 -2 9 -33 25 -68 16 -35 43
-111 61 -169 72 -234 84 -268 117 -330 54 -100 98 -154 257 -311 l147 -144 20
-95 c33 -152 36 -364 9 -523 -31 -184 -87 -351 -178 -530 -168 -328 -327 -542
-680 -914 -158 -166 -420 -417 -390 -373 143 208 268 439 334 620 22 59 62
141 92 187 80 124 137 237 173 343 44 129 52 285 21 408 -27 106 -85 228 -168
355 -77 117 -66 124 -114 -68 -18 -71 -46 -179 -63 -240 -27 -97 -30 -126 -31
-250 0 -130 3 -152 42 -320 60 -252 61 -270 22 -380 -130 -367 -370 -716 -811
-1185 -269 -286 -474 -518 -583 -663 -34 -44 -44 -42 -20 4 29 57 72 194 99
320 l27 121 103 153 c120 176 143 219 180 335 38 115 45 278 19 452 -9 67 -18
171 -18 230 -1 77 -4 108 -13 108 -16 0 -194 -198 -244 -272 -53 -77 -104
-187 -126 -268 -13 -48 -17 -103 -17 -210 1 -129 5 -164 37 -313 21 -92 37
-185 37 -207 0 -89 -68 -319 -144 -488 -62 -138 -58 -132 -256 -398 -254 -342
-491 -706 -640 -984 -44 -82 -60 -105 -55 -80 20 118 35 229 44 325 9 102 14
118 61 220 153 326 176 542 86 802 -30 88 -129 323 -136 323 -10 0 -152 -395
-168 -465 -22 -98 -21 -270 2 -369 10 -44 43 -151 73 -239 54 -157 55 -161 48
-241 -8 -103 -50 -365 -77 -476 -11 -47 -49 -157 -83 -245 -57 -146 -115 -318
-163 -485 l-18 -65 4 150 c4 150 -13 335 -39 415 -7 19 -15 143 -19 275 -7
202 -11 252 -29 315 -60 207 -179 358 -450 571 l-54 43 6 -49 c4 -28 14 -122
22 -210 34 -345 95 -477 335 -725 50 -52 102 -108 115 -125 37 -48 67 -204 72
-385 5 -148 1 -222 -31 -535 -22 -211 -24 -330 -7 -330 9 0 21 32 37 100 43
194 133 425 223 578 75 126 226 282 364 376 114 78 364 171 457 171 29 0 111
-27 260 -85 161 -63 267 -86 406 -86 146 0 245 20 429 86 72 26 145 52 163 58
17 6 32 13 32 16 0 13 -408 201 -480 221 -41 11 -118 23 -170 27 -162 10 -289
-24 -533 -140 -65 -32 -146 -62 -192 -72 -201 -44 -409 -151 -542 -278 -24
-23 -45 -39 -47 -36 -7 7 108 169 222 314 119 150 407 438 532 532 l95 70 140
17 c365 44 545 114 703 275 58 58 276 330 270 336 -2 2 -48 -1 -103 -6 -55 -4
-157 -13 -226 -18 -146 -12 -271 -45 -374 -99 -96 -50 -227 -182 -343 -347
-57 -81 -108 -141 -134 -160 -77 -54 -292 -242 -379 -331 -252 -259 -506 -619
-657 -932 -30 -62 -56 -112 -58 -110 -4 5 50 211 85 322 134 430 327 819 646
1301 194 294 323 462 411 536 112 94 284 207 423 278 l120 61 159 20 c287 36
429 85 574 201 73 58 89 77 252 282 87 110 100 132 69 123 -10 -2 -58 -7 -108
-11 -291 -21 -454 -68 -591 -170 -81 -62 -120 -103 -242 -258 l-116 -149 -107
-53 c-126 -64 -265 -144 -331 -192 -27 -19 -48 -32 -48 -28 0 9 244 314 377
470 188 222 362 405 802 846 368 367 441 436 539 503 189 131 454 256 543 256
18 0 114 -9 213 -21 327 -38 469 -22 723 80 55 22 132 48 171 58 40 9 72 20
72 24 0 8 -89 66 -170 111 -184 102 -399 132 -571 82 -118 -35 -266 -123 -407
-242 -47 -40 -83 -60 -150 -83 -113 -40 -254 -106 -322 -152 -30 -20 -56 -34
-58 -32 -3 3 24 37 60 77 85 95 205 247 301 379 108 150 205 269 308 381 103
112 252 241 289 252 14 3 111 29 215 56 265 70 368 121 486 239 48 47 102 111
121 141 42 66 178 324 178 338 0 5 -33 -3 -72 -18 -40 -16 -134 -44 -208 -64
-272 -71 -357 -113 -481 -236 -98 -98 -142 -158 -228 -321 -49 -92 -71 -124
-108 -153 -54 -42 -151 -134 -236 -224 -32 -34 -60 -62 -62 -62 -2 0 22 55 54
123 221 464 386 852 471 1111 28 84 43 113 110 200 322 421 384 785 224 1314
-19 62 -40 128 -48 145 l-13 32 -17 -60z m64 -203 c114 -455 64 -771 -180
-1120 -39 -57 -73 -102 -75 -100 -2 2 8 52 21 112 13 59 31 149 40 200 8 50
24 123 35 161 20 75 73 374 66 381 -4 5 -64 -261 -72 -326 -7 -53 -114 -489
-124 -508 -4 -7 -20 63 -35 156 -25 147 -28 187 -23 303 6 177 31 258 157 519
54 113 108 236 121 274 27 84 36 77 69 -52z m-1187 -533 c274 -140 422 -359
457 -675 12 -111 10 -160 -5 -119 -44 117 -234 466 -271 496 -16 13 -16 11 1
-21 9 -19 35 -61 56 -92 64 -94 212 -418 192 -418 -4 0 -68 62 -143 138 -131
132 -138 142 -192 252 -35 71 -72 170 -98 260 -23 79 -48 157 -56 172 -13 25
-13 28 1 28 9 0 35 -10 58 -21z m1657 -1126 c0 -15 -106 -204 -153 -271 -84
-121 -191 -206 -332 -263 -84 -33 -367 -110 -363 -98 4 11 233 180 348 258
126 85 279 193 310 220 26 22 -184 -110 -255 -160 -22 -16 -112 -77 -200 -135
-88 -59 -176 -120 -196 -136 -20 -15 -40 -28 -43 -28 -11 0 44 100 103 190 98
149 222 255 366 312 27 11 124 40 215 64 90 25 166 47 169 50 7 7 31 5 31 -3z
m-1924 -444 c64 -112 97 -209 113 -324 20 -138 -7 -261 -94 -440 -57 -118
-118 -216 -100 -160 14 44 44 288 51 416 3 75 3 172 -2 215 -8 71 -9 58 -15
-136 -6 -200 -26 -366 -58 -485 -11 -39 -11 -37 -58 175 -34 156 -38 190 -38
310 1 125 4 145 39 275 62 222 75 270 75 274 3 15 40 -37 87 -120z m1380 -884
c83 -27 236 -105 241 -122 4 -11 -301 -127 -390 -148 -110 -25 -213 -28 -377
-11 -190 20 -224 26 -213 36 11 11 180 55 328 85 115 24 117 25 50 21 -71 -4
-138 -17 -313 -60 -51 -12 -91 -19 -90 -14 7 20 171 133 253 173 130 65 179
76 315 71 91 -3 132 -9 196 -31z m-2606 -467 c1 -2 3 -32 6 -68 3 -36 12 -117
20 -180 42 -315 8 -464 -163 -723 -69 -104 -90 -126 -80 -86 8 33 86 520 102
639 4 31 3 30 -10 -10 -16 -47 -38 -165 -53 -290 -12 -97 -65 -350 -72 -350
-15 0 -63 272 -68 381 -8 190 28 321 131 474 69 102 184 233 187 213z m980
-1087 c0 -14 -143 -196 -199 -254 -129 -136 -297 -213 -531 -247 -41 -6 -90
-13 -107 -16 -43 -6 -42 8 1 28 18 9 66 38 107 64 41 26 94 59 119 72 24 13
57 32 71 43 15 10 30 19 34 19 11 0 295 170 295 176 0 6 -178 -90 -265 -143
-38 -24 -74 -43 -80 -43 -6 0 -34 -16 -64 -35 -29 -19 -55 -35 -58 -35 -3 0
-49 -25 -103 -55 -54 -30 -101 -55 -104 -55 -16 0 148 202 216 266 83 79 149
120 255 158 66 23 220 51 333 59 25 2 53 4 63 5 9 1 17 -2 17 -7z m-2243 -596
c64 -157 84 -231 90 -340 6 -115 -7 -216 -42 -322 -32 -94 -86 -223 -94 -223
-3 0 -5 84 -3 187 2 120 -1 190 -8 197 -7 7 -10 -30 -10 -120 0 -144 -9 -284
-19 -284 -9 0 -90 255 -103 325 -19 101 -14 268 11 365 20 76 88 265 113 314
13 25 18 17 65 -99z m1753 -528 c0 -16 -123 -171 -194 -245 -52 -54 -146 -122
-223 -161 -63 -31 -204 -70 -338 -92 -66 -10 -132 -21 -147 -24 -36 -6 -36 5
0 26 15 9 81 49 146 89 66 40 158 91 205 114 118 58 282 149 277 153 -8 8
-407 -194 -579 -293 -43 -25 -81 -44 -83 -41 -6 5 94 146 154 216 85 99 218
183 351 220 64 18 214 37 351 44 30 2 61 4 68 5 6 1 12 -4 12 -11z m-2649
-223 c185 -151 298 -316 339 -495 13 -58 29 -339 19 -339 -4 0 -19 35 -34 78
-15 42 -31 82 -36 88 -5 6 -15 28 -23 50 -18 51 -178 385 -183 381 -4 -4 70
-175 102 -237 46 -86 152 -376 142 -387 -9 -8 -196 198 -239 263 -83 125 -129
262 -147 434 -20 185 -22 220 -15 220 4 0 37 -25 75 -56z m2191 -788 c40 -8
98 -23 128 -34 93 -33 321 -145 317 -156 -9 -26 -274 -109 -398 -124 -102 -13
-251 -1 -353 28 -39 10 -127 41 -196 69 -119 47 -123 49 -90 55 52 10 441 11
555 2 66 -6 97 -5 90 1 -21 21 -140 30 -397 29 -148 -1 -268 0 -268 1 0 7 124
64 190 88 154 55 282 68 422 41z"/>
<path d="M8105 7240 c-26 -7 -23 -8 20 -8 28 0 70 3 95 7 44 8 43 8 -20 9 -36
0 -78 -4 -95 -8z"/>
<path d="M4438 4976 c-11 -157 -10 -242 2 -230 7 7 9 72 8 175 l-3 164 -7
-109z"/>
<path d="M5878 3513 c7 -3 16 -2 19 1 4 3 -2 6 -13 5 -11 0 -14 -3 -6 -6z"/>
<path d="M4380 9239 c-113 -6 -366 -7 -563 -4 -288 4 -358 3 -355 -7 3 -8 40
-17 99 -24 258 -31 336 -95 359 -296 8 -63 10 -533 8 -1483 l-3 -1390 -23 -68
c-38 -112 -127 -178 -264 -194 -31 -4 -48 -11 -48 -19 0 -12 84 -14 491 -14
388 0 490 3 487 12 -3 7 -26 16 -51 20 -128 18 -207 69 -248 161 l-24 52 -3
721 -3 721 103 -19 c282 -50 611 -63 840 -33 515 68 836 286 958 652 82 245
58 531 -61 735 -109 187 -324 341 -574 412 -193 55 -306 68 -625 71 -162 2
-387 -1 -500 -6z m615 -49 c508 -59 801 -289 870 -686 53 -302 -34 -619 -222
-809 -187 -189 -465 -285 -828 -285 -149 0 -346 20 -485 48 l-85 18 -3 842 -2
842 22 10 c57 24 574 38 733 20z"/>
<path d="M7283 6153 c-375 -3 -433 -5 -433 -18 0 -10 10 -15 32 -15 17 0 59
-8 92 -17 76 -21 148 -87 168 -154 20 -66 19 -2436 -1 -2494 -35 -103 -99
-156 -216 -178 -38 -6 -70 -17 -72 -23 -5 -15 930 -25 1122 -12 297 19 545 95
764 235 441 282 668 858 586 1490 -75 579 -429 992 -965 1128 -223 56 -363 64
-1077 58z m812 -72 c377 -83 647 -286 809 -609 212 -421 206 -1095 -14 -1532
-174 -346 -458 -559 -846 -637 -69 -13 -139 -17 -304 -17 -118 0 -236 3 -261
7 l-47 8 -7 142 c-3 78 -5 701 -3 1384 2 996 6 1245 16 1255 33 33 506 32 657
-1z"/>
</g>
</svg>
